<?xml version="1.0" standalone="no"?>
<!DOCTYPE svg PUBLIC "-//W3C//DTD SVG 20010904//EN"
 "http://www.w3.org/TR/2001/REC-SVG-20010904/DTD/svg10.dtd">
<svg version="1.0" xmlns="http://www.w3.org/2000/svg"
 width="275.000000pt" height="275.000000pt" viewBox="0 0 275.000000 275.000000"
 preserveAspectRatio="xMidYMid meet">
<metadata>
Created by potrace 1.14, written by Peter Selinger 2001-2017
</metadata>
<g transform="translate(0.000000,275.000000) scale(0.100000,-0.100000)"
fill="#000000" stroke="none">
<path d="M760 2574 c-7 -19 -9 -51 -5 -71 8 -43 69 -111 136 -152 l48 -30 54
60 c43 46 53 65 49 84 -2 14 3 36 13 51 21 33 15 39 -69 70 -48 17 -88 24
-141 24 l-73 0 -12 -36z m270 -19 c14 -8 21 -14 15 -14 -5 0 -21 6 -35 14 -14
8 -20 14 -15 14 6 0 21 -6 35 -14z"/>
<path d="M1135 2465 c-57 -15 -63 -19 -123 -95 -35 -44 -67 -80 -72 -80 -5 0
-21 5 -37 11 -15 6 -65 11 -110 10 -82 0 -137 -15 -160 -42 -10 -12 2 -14 75
-14 95 0 169 -24 154 -50 -4 -7 -145 -164 -315 -349 -169 -184 -307 -338 -307
-341 0 -3 18 -5 40 -5 39 0 43 4 335 319 162 176 300 323 307 327 6 4 21 -4
34 -19 l23 -27 -63 -152 c-178 -432 -219 -528 -226 -528 -4 0 -28 16 -53 35
l-46 35 -283 -2 -283 -3 71 -37 c39 -20 79 -49 88 -63 10 -15 20 -24 23 -22 2
3 36 -31 75 -75 l70 -80 129 4 c84 2 128 -1 125 -7 -36 -91 -79 -192 -85 -197
-6 -6 -77 70 -168 180 -12 14 -25 24 -28 20 -3 -3 37 -55 89 -114 53 -60 96
-113 96 -118 0 -5 -17 11 -39 35 -21 24 -100 114 -175 199 -77 88 -134 161
-131 168 9 25 -6 34 -26 16 -26 -23 -25 -29 18 -91 37 -54 39 -69 9 -57 -12 5
-14 10 -6 19 22 26 -7 22 -70 -11 l-65 -34 55 0 c85 0 99 -7 105 -49 23 -139
94 -321 171 -441 107 -164 287 -325 441 -394 l43 -19 -39 -43 c-48 -51 -60
-99 -39 -152 l14 -37 76 2 c75 3 162 27 203 57 17 12 17 14 2 37 -10 13 -17
32 -17 42 0 18 5 19 58 11 31 -5 131 -9 222 -8 144 1 177 4 263 27 54 14 140
46 193 71 78 37 99 43 120 36 40 -16 47 -13 41 19 -6 27 -1 34 41 65 57 42
178 164 225 226 113 152 192 346 213 523 7 57 7 57 48 67 100 26 252 73 260
80 8 8 -101 46 -240 85 l-61 17 -7 56 c-16 133 -73 299 -143 415 -59 99 -116
168 -211 258 -138 130 -301 218 -502 271 -101 27 -339 34 -425 13z m256 -26
c254 -25 463 -117 646 -284 167 -151 305 -414 329 -626 5 -47 4 -59 -7 -59 -8
0 -75 11 -149 24 -74 14 -137 23 -138 21 -2 -2 29 -27 69 -57 l74 -53 -380 -3
c-208 -1 -382 1 -385 5 -4 5 -35 89 -70 188 -122 350 -179 458 -312 601 l-57
61 32 30 c18 17 62 47 100 68 37 20 67 40 67 44 0 3 -7 17 -16 29 -15 22 -15
22 39 22 30 0 101 -5 158 -11z m-216 -10 c11 -17 -1 -21 -15 -4 -8 9 -8 15 -2
15 6 0 14 -5 17 -11z m-138 -471 c-7 -18 -31 -75 -52 -126 -21 -51 -40 -91
-42 -89 -6 7 90 247 99 247 4 0 2 -15 -5 -32z m137 -315 c42 -126 76 -231 76
-235 0 -5 -80 -8 -179 -8 l-179 0 88 223 c91 235 96 247 109 247 4 0 42 -102
85 -227z m-243 60 c-12 -20 -14 -14 -5 12 4 9 9 14 11 11 3 -2 0 -13 -6 -23z
m-20 -50 c-12 -20 -14 -14 -5 12 4 9 9 14 11 11 3 -2 0 -13 -6 -23z m-251
-223 l35 -32 -48 34 c-27 18 -51 36 -54 41 -9 16 31 -10 67 -43z m1550 -124
c0 -2 -32 -28 -70 -56 -39 -29 -69 -54 -67 -56 2 -3 65 7 140 21 75 14 142 25
148 25 8 0 9 -14 4 -47 -33 -225 -162 -466 -336 -627 -106 -98 -110 -99 -164
-46 -24 24 -42 47 -40 50 3 4 25 13 49 19 97 24 275 172 316 263 54 118 2 216
-157 297 -47 23 -83 29 -43 6 14 -8 20 -14 14 -15 -7 0 -22 9 -35 21 -13 11
-19 18 -13 15 16 -8 37 106 21 116 -6 4 -62 8 -123 8 l-111 0 -27 -96 c-15
-53 -26 -97 -24 -99 2 -1 19 -10 38 -20 87 -44 150 -115 150 -170 0 -52 -55
-119 -139 -168 l-30 -18 -32 63 c-36 72 -81 186 -150 381 l-48 137 364 0 c201
0 365 -2 365 -4z m-925 -36 c-8 -13 -355 -13 -375 0 -10 6 51 10 183 10 130 0
196 -3 192 -10z m-822 -307 l29 -34 -27 -35 c-28 -37 -80 -74 -103 -74 -32 0
-121 241 -138 373 l-7 51 109 -124 c60 -67 122 -138 137 -157z m903 112 c54
-150 136 -331 175 -387 12 -16 20 -31 18 -32 -7 -5 -135 -55 -277 -107 -175
-65 -232 -89 -232 -100 0 -17 42 -51 84 -70 l43 -19 84 36 c78 33 338 118 385
126 14 2 40 -15 82 -53 34 -31 62 -59 62 -63 0 -13 -145 -76 -223 -95 -96 -25
-262 -43 -320 -35 -37 5 -44 10 -40 25 4 14 -10 25 -63 53 -38 19 -83 48 -100
63 -37 32 -308 343 -342 390 l-23 32 56 147 c96 256 80 245 369 242 l209 -3
53 -150z m757 2 c36 -28 74 -84 64 -94 -3 -2 -8 4 -11 15 -7 20 -68 80 -116
115 l-25 18 25 -12 c14 -7 42 -25 63 -42z m-1615 -317 c-19 -30 3 -40 94 -40
l77 0 143 -162 c182 -207 208 -239 201 -251 -3 -5 -22 10 -42 33 l-37 43 -37
-14 c-35 -12 -41 -11 -95 15 -140 69 -280 184 -376 309 -31 40 -56 76 -56 80
0 4 32 7 70 7 68 0 70 -1 58 -20z m337 -147 c174 -199 189 -213 280 -264 82
-46 80 -52 -4 -10 -81 41 -104 63 -264 245 -175 201 -171 196 -164 196 3 0 72
-75 152 -167z m184 -330 c2 -2 1 -6 -3 -10 -7 -8 -86 66 -86 81 0 6 19 -8 42
-29 24 -22 45 -41 47 -42z m21 -107 c0 -5 -7 -3 -15 4 -8 7 -15 20 -15 28 0
13 3 12 15 -4 8 -10 15 -23 15 -28z"/>
<path d="M1130 2329 c-26 -10 -80 -57 -80 -70 0 -9 65 -36 275 -114 217 -81
424 -179 483 -230 112 -98 93 -188 -61 -282 -41 -25 -56 -40 -53 -51 3 -10 15
-52 27 -94 l22 -78 125 0 125 0 -7 30 c-3 17 -9 43 -12 58 -5 26 -2 30 60 61
124 63 176 127 176 213 -1 82 -59 168 -172 253 -93 70 -122 82 -379 156 -216
63 -334 102 -431 143 -42 18 -62 19 -98 5z m870 -293 c96 -64 169 -146 184
-206 4 -14 -5 -4 -19 22 -30 57 -109 137 -181 185 -30 20 -54 38 -54 40 0 5
13 -3 70 -41z m-43 -558 c-3 -8 -6 -5 -6 6 -1 11 2 17 5 13 3 -3 4 -12 1 -19z"/>
</g>
</svg>
